<svg width="108" height="48" viewBox="0 0 108 48" fill="none" xmlns="http://www.w3.org/2000/svg">
<path d="M9.85547 16.1875C10.3398 16.1875 10.6758 16.1406 10.8633 16.0469L10.9102 16.0586L10.793 19H2.01562V3.33203C2.22656 3.34766 2.46094 3.35937 2.71875 3.36719L3.53906 3.39062C4.08594 3.40625 4.67969 3.41406 5.32031 3.41406C7.10938 3.41406 8.87891 3.38281 10.6289 3.32031C10.543 4.00781 10.5 4.92578 10.5 6.07422C10.5 6.19922 10.5078 6.29297 10.5234 6.35547L10.5 6.39062C10.0938 6.27344 9.51562 6.21484 8.76562 6.21484H5.07422V9.20312H7.85156C8.71094 9.20312 9.22656 9.17969 9.39844 9.13281L9.43359 12.0273C9.05859 11.9883 8.57422 11.9688 7.98047 11.9688H5.07422V16.1875H9.85547ZM16.8281 17.5C16.8281 18.1875 16.8594 18.6875 16.9219 19H13.9805V6.75391H16.8281V7.79688C17.8594 6.94531 18.9609 6.51953 20.1328 6.51953C21.4141 6.51953 22.4375 6.95703 23.2031 7.83203C23.9688 8.69922 24.3516 9.84375 24.3516 11.2656V15.9297C24.3516 17.25 24.3711 18.043 24.4102 18.3086C24.4492 18.5742 24.5 18.7461 24.5625 18.8242C24.6328 18.9023 24.6914 18.9727 24.7383 19.0352L24.7148 19.082C24.082 19.0273 23.6211 19 23.332 19H22.5117C22.2617 19 21.9258 19.0117 21.5039 19.0352V12.6484C21.5039 10.3594 20.8086 9.21484 19.418 9.21484C18.3867 9.21484 17.5234 9.74609 16.8281 10.8086V17.5ZM31.0078 15.7422C30.7188 16.125 30.5742 16.4297 30.5742 16.6562C30.5742 16.875 30.6094 17.0469 30.6797 17.1719C30.75 17.2891 30.9023 17.4023 31.1367 17.5117C31.6523 17.7539 32.5 17.9688 33.6797 18.1562C34.8594 18.3359 35.7812 18.5625 36.4453 18.8359C37.1172 19.1094 37.6602 19.4453 38.0742 19.8438C38.8477 20.6016 39.2344 21.6758 39.2344 23.0664C39.2344 24.457 38.7461 25.5234 37.7695 26.2656C36.793 27.0156 35.3438 27.3906 33.4219 27.3906C31.4844 27.3906 29.9219 26.9688 28.7344 26.125C27.5469 25.2812 26.9375 24.1602 26.9062 22.7617C26.8594 21.1367 27.4961 19.9609 28.8164 19.2344C28.457 18.9375 28.2148 18.5898 28.0898 18.1914C27.9727 17.7852 27.9141 17.3242 27.9141 16.8086C27.9141 15.9414 28.293 15.207 29.0508 14.6055C28.168 13.7695 27.7266 12.7305 27.7266 11.4883C27.7266 10.0977 28.2266 8.93359 29.2266 7.99609C30.2812 7.01172 31.6484 6.51953 33.3281 6.51953C34.2109 6.51953 35.0391 6.68359 35.8125 7.01172C36.8281 6.58203 37.5742 6.20703 38.0508 5.88672C38.5273 5.55859 38.832 5.32031 38.9648 5.17188L39.0352 5.18359C39.1055 5.37109 39.1875 5.63672 39.2812 5.98047L39.4922 6.82422C39.6797 7.51953 39.793 7.99609 39.832 8.25391C39.4883 8.62891 38.8828 8.89453 38.0156 9.05078C38.3516 9.69922 38.5195 10.3867 38.5195 11.1133C38.5195 11.8398 38.3945 12.5 38.1445 13.0938C37.8945 13.6797 37.5391 14.1953 37.0781 14.6406C36.0547 15.6016 34.75 16.082 33.1641 16.082C32.3906 16.082 31.6719 15.9688 31.0078 15.7422ZM30.7031 10.4688C30.5938 10.75 30.5391 11.0352 30.5391 11.3242C30.5391 11.6133 30.5977 11.8906 30.7148 12.1562C30.8398 12.4219 31.0195 12.6602 31.2539 12.8711C31.7773 13.3398 32.4609 13.5742 33.3047 13.5742C33.9453 13.5742 34.5 13.3594 34.9688 12.9297C35.4609 12.4609 35.707 11.8984 35.707 11.2422C35.707 10.5781 35.4844 10.043 35.0391 9.63672C34.5938 9.23047 33.9805 9.02734 33.1992 9.02734C31.9102 9.02734 31.0781 9.50781 30.7031 10.4688ZM33.5742 24.9062C35.4961 24.9062 36.457 24.2344 36.457 22.8906C36.457 22.25 36.1445 21.7344 35.5195 21.3438C34.8164 20.8984 33.6094 20.5508 31.8984 20.3008L31.2891 20.1953C30.7734 20.4688 30.3945 20.8203 30.1523 21.25C29.9102 21.6797 29.7891 22.0859 29.7891 22.4688C29.7969 22.8594 29.8906 23.1953 30.0703 23.4766C30.25 23.7578 30.5 24.0039 30.8203 24.2148C31.5312 24.6758 32.4492 24.9062 33.5742 24.9062ZM44.4961 17.6875C44.4961 18.3594 44.5117 18.7969 44.543 19H41.5664V1.53906H44.4961V17.6875ZM47.4258 3.26172C48.0508 2.28516 48.7031 1.42578 49.3828 0.683594L51.9023 2.66406C51.5664 3.07812 51.2539 3.48438 50.9648 3.88281C50.9648 3.88281 50.6641 4.30859 50.0625 5.16016L47.4258 3.26172ZM50.5078 17.6875C50.5078 18.3594 50.5234 18.7969 50.5547 19H47.5781V6.75391H50.5078V17.6875ZM57.9492 19.1758C55.7461 19.1758 54.0859 18.7734 52.9688 17.9688C52.9844 17.7344 53.0078 17.4688 53.0391 17.1719L53.1445 16.3281C53.207 15.7734 53.2461 15.4297 53.2617 15.2969C53.2773 15.1562 53.2891 15.082 53.2969 15.0742C53.3047 15.0586 53.3672 15.1211 53.4844 15.2617C53.6016 15.3945 53.8242 15.5586 54.1523 15.7539C54.4805 15.9492 54.8594 16.1211 55.2891 16.2695C56.2188 16.5898 57.1875 16.75 58.1953 16.75C59.5469 16.75 60.2227 16.3008 60.2227 15.4023C60.2227 15.1133 60.0938 14.8984 59.8359 14.7578C59.375 14.5234 58.6953 14.3477 57.7969 14.2305C56.9062 14.1055 56.1758 13.9258 55.6055 13.6914C55.0352 13.457 54.5703 13.1758 54.2109 12.8477C53.5469 12.2305 53.2148 11.4219 53.2148 10.4219C53.2148 9.20312 53.6836 8.24609 54.6211 7.55078C55.5508 6.86328 56.8359 6.51953 58.4766 6.51953C60.1016 6.51953 61.4883 6.98047 62.6367 7.90234C62.582 8.10547 62.5234 8.30078 62.4609 8.48828C62.2812 9.00391 62.1484 9.375 62.0625 9.60156L61.793 10.293C61.7773 10.3555 61.7656 10.3867 61.7578 10.3867C61.7422 10.3867 61.6797 10.3047 61.5703 10.1406C61.0781 9.57031 60.3125 9.19531 59.2734 9.01562C58.9531 8.95312 58.625 8.92188 58.2891 8.92188C56.8672 8.92188 56.1562 9.35156 56.1562 10.2109C56.1562 10.5078 56.3047 10.7344 56.6016 10.8906C57.1562 11.1875 57.9141 11.4062 58.875 11.5469C59.8438 11.6875 60.5781 11.8789 61.0781 12.1211C61.5781 12.3555 61.9805 12.6406 62.2852 12.9766C62.8477 13.5859 63.1289 14.3945 63.1289 15.4023C63.1289 16.5039 62.6875 17.3984 61.8047 18.0859C60.8828 18.8125 59.5977 19.1758 57.9492 19.1758ZM69.0234 17.6875C69.0234 18.3594 69.0391 18.7969 69.0703 19H66.1523V2.24219H69.0234V7.66797C70.0312 6.90234 71.0703 6.51953 72.1406 6.51953C73.4531 6.51953 74.5078 6.95312 75.3047 7.82031C76.0859 8.6875 76.4766 9.83594 76.4766 11.2656V15.9297C76.4766 17.25 76.4961 18.043 76.5352 18.3086C76.5742 18.5742 76.625 18.7461 76.6875 18.8242C76.7578 18.9023 76.8164 18.9727 76.8633 19.0352L76.8398 19.082C76.207 19.0273 75.7461 19 75.457 19H74.625C74.3672 19 74.0273 19.0117 73.6055 19.0352V12.25C73.6055 11.1719 73.3672 10.375 72.8906 9.85938C72.5312 9.46875 72.043 9.27344 71.4258 9.27344C70.5117 9.27344 69.7109 9.80078 69.0234 10.8555V17.6875ZM51.2695 28.2812L51.0469 31.7266L50.9648 31.75C50.3867 30.8828 49.4023 30.3203 48.0117 30.0625C47.5742 29.9766 47.1523 29.9336 46.7461 29.9336C46.3477 29.9336 46.0039 29.9688 45.7148 30.0391C45.4336 30.1094 45.1914 30.2109 44.9883 30.3438C44.5586 30.625 44.3438 30.9922 44.3438 31.4453C44.3438 32.0391 44.5312 32.4844 44.9062 32.7812C45.375 33.1406 46.1523 33.3945 47.2383 33.543C48.3242 33.6836 49.1953 33.8789 49.8516 34.1289C50.5078 34.3789 51.0469 34.6953 51.4688 35.0781C52.2656 35.7969 52.6641 36.8125 52.6641 38.125C52.6641 39.8438 52.0156 41.168 50.7188 42.0977C49.6094 42.8945 48.2109 43.293 46.5234 43.293C45.1641 43.293 43.8203 43.0352 42.4922 42.5195C42.0547 42.3477 41.6719 42.1484 41.3438 41.9219L41.4727 38.0078L41.5195 37.9727C42.4883 39.6445 44.0781 40.4805 46.2891 40.4805C47.8594 40.4805 48.8984 40.1016 49.4062 39.3438C49.5781 39.0859 49.6641 38.8008 49.6641 38.4883C49.6641 38.168 49.6133 37.9062 49.5117 37.7031C49.4102 37.4922 49.2422 37.3125 49.0078 37.1641C48.5547 36.8672 47.793 36.668 46.7227 36.5664C45.6523 36.4648 44.7773 36.2734 44.0977 35.9922C43.418 35.7109 42.875 35.3633 42.4688 34.9492C41.7344 34.1992 41.3672 33.1523 41.3672 31.8086C41.3672 30.418 41.8555 29.293 42.832 28.4336C43.8242 27.5586 45.1602 27.1211 46.8398 27.1211C48.5273 27.1211 50.0039 27.5078 51.2695 28.2812ZM63.6445 42.2734C62.5352 42.875 61.5312 43.1758 60.6328 43.1758C59.7344 43.1758 58.9648 43.0938 58.3242 42.9297C57.6836 42.7578 57.1406 42.5078 56.6953 42.1797C55.7891 41.5156 55.3359 40.5547 55.3359 39.2969C55.3359 38.1719 55.8906 37.2344 57 36.4844C58.2031 35.6719 59.8359 35.2656 61.8984 35.2656L62.3672 35.2773C62.4609 35.2852 62.5664 35.293 62.6836 35.3008C62.8008 35.3008 62.9062 35.3086 63 35.3242C62.9375 34.0742 62.3984 33.3438 61.3828 33.1328C61.0469 33.0625 60.6875 33.0273 60.3047 33.0273C59.9297 33.0273 59.5586 33.0625 59.1914 33.1328C58.832 33.1953 58.4805 33.2812 58.1367 33.3906C57.3789 33.6328 56.8359 33.9102 56.5078 34.2227L56.4727 34.1992L56.1211 31.6094C57.5039 30.8828 59.0156 30.5195 60.6562 30.5195C63.2031 30.5195 64.832 31.4375 65.543 33.2734C65.7695 33.8594 65.8828 34.5195 65.8828 35.2539V39.4961C65.8828 40.4023 66.2031 41.0195 66.8438 41.3477L64.7227 43.293C64.2773 43.0586 63.918 42.7188 63.6445 42.2734ZM63.0117 37.4336C62.8008 37.3945 62.582 37.375 62.3555 37.375H61.8867C60.1602 37.375 59.0625 37.7578 58.5938 38.5234C58.4531 38.75 58.3828 38.9883 58.3828 39.2383C58.3828 39.4883 58.4258 39.7109 58.5117 39.9062C58.6055 40.0938 58.7578 40.25 58.9688 40.375C59.375 40.6094 59.9766 40.7266 60.7734 40.7266C61.5781 40.7266 62.3281 40.5352 63.0234 40.1523C63.0156 40.0664 63.0117 39.9766 63.0117 39.8828V37.4336ZM73.6758 43.1758C71.4727 43.1758 69.8125 42.7734 68.6953 41.9688C68.7109 41.7344 68.7344 41.4688 68.7656 41.1719L68.8711 40.3281C68.9336 39.7734 68.9727 39.4297 68.9883 39.2969C69.0039 39.1562 69.0156 39.082 69.0234 39.0742C69.0312 39.0586 69.0938 39.1211 69.2109 39.2617C69.3281 39.3945 69.5508 39.5586 69.8789 39.7539C70.207 39.9492 70.5859 40.1211 71.0156 40.2695C71.9453 40.5898 72.9141 40.75 73.9219 40.75C75.2734 40.75 75.9492 40.3008 75.9492 39.4023C75.9492 39.1133 75.8203 38.8984 75.5625 38.7578C75.1016 38.5234 74.4219 38.3477 73.5234 38.2305C72.6328 38.1055 71.9023 37.9258 71.332 37.6914C70.7617 37.457 70.2969 37.1758 69.9375 36.8477C69.2734 36.2305 68.9414 35.4219 68.9414 34.4219C68.9414 33.2031 69.4102 32.2461 70.3477 31.5508C71.2773 30.8633 72.5625 30.5195 74.2031 30.5195C75.8281 30.5195 77.2148 30.9805 78.3633 31.9023C78.3086 32.1055 78.25 32.3008 78.1875 32.4883C78.0078 33.0039 77.875 33.375 77.7891 33.6016L77.5195 34.293C77.5039 34.3555 77.4922 34.3867 77.4844 34.3867C77.4688 34.3867 77.4062 34.3047 77.2969 34.1406C76.8047 33.5703 76.0391 33.1953 75 33.0156C74.6797 32.9531 74.3516 32.9219 74.0156 32.9219C72.5938 32.9219 71.8828 33.3516 71.8828 34.2109C71.8828 34.5078 72.0312 34.7344 72.3281 34.8906C72.8828 35.1875 73.6406 35.4062 74.6016 35.5469C75.5703 35.6875 76.3047 35.8789 76.8047 36.1211C77.3047 36.3555 77.707 36.6406 78.0117 36.9766C78.5742 37.5859 78.8555 38.3945 78.8555 39.4023C78.8555 40.5039 78.4141 41.3984 77.5312 42.0859C76.6094 42.8125 75.3242 43.1758 73.6758 43.1758ZM84.75 41.6875C84.75 42.3594 84.7656 42.7969 84.7969 43H81.8789V26.2422H84.75V31.668C85.7578 30.9023 86.7969 30.5195 87.8672 30.5195C89.1797 30.5195 90.2344 30.9531 91.0312 31.8203C91.8125 32.6875 92.2031 33.8359 92.2031 35.2656V39.9297C92.2031 41.25 92.2227 42.043 92.2617 42.3086C92.3008 42.5742 92.3516 42.7461 92.4141 42.8242C92.4844 42.9023 92.543 42.9727 92.5898 43.0352L92.5664 43.082C91.9336 43.0273 91.4727 43 91.1836 43H90.3516C90.0938 43 89.7539 43.0117 89.332 43.0352V36.25C89.332 35.1719 89.0938 34.375 88.6172 33.8594C88.2578 33.4688 87.7695 33.2734 87.1523 33.2734C86.2383 33.2734 85.4375 33.8008 84.75 34.8555V41.6875ZM103.652 42.2734C102.543 42.875 101.539 43.1758 100.641 43.1758C99.7422 43.1758 98.9727 43.0938 98.332 42.9297C97.6914 42.7578 97.1484 42.5078 96.7031 42.1797C95.7969 41.5156 95.3438 40.5547 95.3438 39.2969C95.3438 38.1719 95.8984 37.2344 97.0078 36.4844C98.2109 35.6719 99.8438 35.2656 101.906 35.2656L102.375 35.2773C102.469 35.2852 102.574 35.293 102.691 35.3008C102.809 35.3008 102.914 35.3086 103.008 35.3242C102.945 34.0742 102.406 33.3438 101.391 33.1328C101.055 33.0625 100.695 33.0273 100.312 33.0273C99.9375 33.0273 99.5664 33.0625 99.1992 33.1328C98.8398 33.1953 98.4883 33.2812 98.1445 33.3906C97.3867 33.6328 96.8438 33.9102 96.5156 34.2227L96.4805 34.1992L96.1289 31.6094C97.5117 30.8828 99.0234 30.5195 100.664 30.5195C103.211 30.5195 104.84 31.4375 105.551 33.2734C105.777 33.8594 105.891 34.5195 105.891 35.2539V39.4961C105.891 40.4023 106.211 41.0195 106.852 41.3477L104.73 43.293C104.285 43.0586 103.926 42.7188 103.652 42.2734ZM103.02 37.4336C102.809 37.3945 102.59 37.375 102.363 37.375H101.895C100.168 37.375 99.0703 37.7578 98.6016 38.5234C98.4609 38.75 98.3906 38.9883 98.3906 39.2383C98.3906 39.4883 98.4336 39.7109 98.5195 39.9062C98.6133 40.0938 98.7656 40.25 98.9766 40.375C99.3828 40.6094 99.9844 40.7266 100.781 40.7266C101.586 40.7266 102.336 40.5352 103.031 40.1523C103.023 40.0664 103.02 39.9766 103.02 39.8828V37.4336Z" fill="black"/>
<path d="M14.6016 31.3254C14.6204 31.223 14.6816 31.1495 14.7851 31.105C14.9008 31.0521 15.02 31.037 15.143 31.0596C15.2557 31.0804 15.3464 31.1341 15.4152 31.2209C15.4961 31.2994 15.5284 31.4112 15.5123 31.5565C15.2787 32.3079 15.0349 33.0574 14.7808 33.805C14.537 34.5545 14.2988 35.2733 14.0663 35.9613C14.0092 36.0991 13.9279 36.1954 13.8225 36.2501C13.7152 36.3151 13.6155 36.3391 13.5233 36.3222C13.4311 36.3052 13.3497 36.2584 13.279 36.1819C13.2065 36.1156 13.168 36.0079 13.1637 35.8588C12.8981 35.4604 12.6302 35.0457 12.3599 34.6147C12.0916 34.1734 11.8536 33.7113 11.6459 33.2282C11.6209 33.1918 11.5958 33.1554 11.5707 33.1191C11.5456 33.0827 11.5126 33.0607 11.4716 33.0532C11.4306 33.0456 11.3262 33.0952 11.1582 33.202C11.0024 33.3005 10.8023 33.4384 10.5578 33.6158C10.3255 33.7849 10.0628 33.9749 9.7698 34.1858C9.48893 34.3883 9.20294 34.5899 8.91183 34.7905C8.81479 34.8574 8.70333 34.9163 8.57744 34.9673C8.46368 35.0099 8.35558 35.0218 8.25313 35.0029C8.17118 34.9878 8.1136 34.8978 8.08041 34.7328C8.0491 34.5576 8.0314 34.3372 8.0273 34.0717C8.02321 33.8061 8.03083 33.5057 8.05017 33.1703C8.06951 32.8349 8.09492 32.4954 8.12639 32.1517C8.15787 31.8079 8.19164 31.4805 8.2277 31.1694C8.26564 30.848 8.30117 30.5686 8.33429 30.3311C8.36068 30.1877 8.42239 30.0825 8.51943 30.0156C8.6286 29.9404 8.73953 29.9132 8.85222 29.9339C8.96491 29.9546 9.06076 30.0093 9.13976 30.098C9.22902 30.1886 9.26975 30.3126 9.26196 30.47C9.19656 30.9981 9.13669 31.5538 9.08235 32.1369C9.03825 32.7219 9.00641 33.2403 8.98682 33.6922L10.9381 32.2401C11.1966 32.044 11.4487 31.9686 11.6946 32.0139C11.8073 32.0346 11.9143 32.0861 12.0157 32.1683C12.119 32.2402 12.2003 32.3452 12.2596 32.4832C12.4293 32.8851 12.6134 33.295 12.8119 33.7128C13.0225 34.1223 13.243 34.5071 13.4733 34.8672C13.5595 34.6289 13.6513 34.3598 13.7489 34.06C13.8567 33.7621 13.9612 33.453 14.0625 33.1327C14.1657 32.8022 14.2619 32.4809 14.351 32.169C14.4504 31.859 14.534 31.5778 14.6016 31.3254ZM17.7608 32.288C17.6969 32.5199 17.6312 32.762 17.5636 33.0143C17.5062 33.2686 17.453 33.5289 17.404 33.7952C17.3343 34.1743 17.2799 34.5562 17.2409 34.9409C17.2121 35.3275 17.1647 35.7 17.0988 36.0586C17.0611 36.2635 16.9816 36.4077 16.8603 36.4913C16.7492 36.5768 16.6373 36.6092 16.5246 36.5884C16.4222 36.5696 16.3417 36.5177 16.2832 36.4328C16.2368 36.3395 16.2236 36.21 16.2435 36.0442C16.2976 35.5775 16.3441 35.1519 16.3832 34.7671C16.4343 34.3741 16.4957 33.9829 16.5673 33.5936C16.5956 33.4399 16.6263 33.2443 16.6594 33.0068C16.7046 32.761 16.7573 32.5323 16.8174 32.321C16.8896 32.1012 16.9757 31.9211 17.0757 31.7807C17.1878 31.6318 17.3258 31.5725 17.4897 31.6026C17.5922 31.6215 17.6708 31.6836 17.7255 31.789C17.7905 31.8963 17.8089 32.0268 17.7806 32.1805L17.7608 32.288ZM17.6679 28.6486C17.7126 28.6357 17.7503 28.632 17.7811 28.6377C17.8221 28.6452 17.857 28.6569 17.8858 28.6728C17.9249 28.6906 17.9547 28.7014 17.9752 28.7052C18.0283 28.7043 18.0753 28.7077 18.1163 28.7152C18.1592 28.7125 18.2062 28.7159 18.2575 28.7253C18.5955 28.7875 18.8258 28.9464 18.9482 29.202C19.0809 29.4594 19.1237 29.7162 19.0766 29.9723C19.054 30.0952 18.9987 30.2227 18.9109 30.3548C18.8332 30.4889 18.7268 30.607 18.5915 30.7092C18.4683 30.803 18.3172 30.8758 18.1382 30.9276C17.9592 30.9794 17.7621 30.9855 17.547 30.9459C17.4036 30.9195 17.277 30.8592 17.1673 30.7648C17.0575 30.6705 16.966 30.5636 16.8926 30.4442C16.8211 30.3146 16.7721 30.1784 16.7453 30.0358C16.7205 29.883 16.7203 29.74 16.7448 29.6068C16.7825 29.4019 16.8887 29.199 17.0634 28.9981C17.2483 28.7991 17.4498 28.6826 17.6679 28.6486ZM17.8896 29.5156L17.7667 29.4929C17.7117 29.504 17.6692 29.5333 17.6393 29.5807C17.6094 29.6282 17.5897 29.6775 17.5803 29.7287C17.5634 29.8209 17.5832 29.9146 17.6398 30.0098C17.6983 30.0947 17.7583 30.1428 17.8198 30.1541C17.9735 30.1824 18.0844 30.1551 18.1526 30.0723C18.2227 29.9793 18.2652 29.8918 18.2803 29.8099C18.2593 29.6365 18.1719 29.5357 18.0182 29.5074C17.9977 29.5037 17.9549 29.5064 17.8896 29.5156ZM22.9816 37.7607C21.9927 37.494 21.3164 37.0253 20.9526 36.3546C20.5888 35.684 20.5068 34.8057 20.7066 33.7197L20.8253 33.0743C20.4258 33.0008 20.0994 32.9037 19.8463 32.783C19.595 32.652 19.4929 32.4585 19.54 32.2023C19.5775 32.1139 19.6377 32.0456 19.7208 31.9973C19.8057 31.9388 19.9147 31.9218 20.0479 31.9463C20.1708 31.9689 20.3165 32.0116 20.4851 32.0744C20.6536 32.1371 20.8403 32.1874 21.0452 32.2251C21.1055 31.8973 21.177 31.5662 21.2597 31.2319C21.3443 30.8873 21.4376 30.5815 21.5397 30.3143C21.6521 30.049 21.7704 29.8377 21.8946 29.6806C22.0208 29.5131 22.1607 29.4435 22.3144 29.4718C22.427 29.4925 22.5201 29.5626 22.5934 29.682C22.6687 29.7912 22.6912 29.9277 22.661 30.0917C22.6139 30.3478 22.52 30.6853 22.3794 31.1043C22.2387 31.5232 22.1097 31.9655 21.9923 32.4311C22.0723 32.4565 22.1524 32.4818 22.2325 32.5071C22.3247 32.5241 22.4169 32.541 22.5091 32.558C22.673 32.5882 22.8378 32.6132 23.0036 32.6331C23.1797 32.6549 23.3567 32.6716 23.5346 32.6832C23.678 32.7095 23.7883 32.7722 23.8654 32.8711C23.9426 32.97 23.9717 33.0707 23.9528 33.1732C23.9264 33.3166 23.8657 33.4166 23.7705 33.4733C23.6773 33.5197 23.5612 33.546 23.4224 33.5522C23.2957 33.5501 23.1452 33.533 22.9711 33.5009C22.8072 33.4708 22.6432 33.4406 22.4793 33.4104L21.7724 33.2804C21.7415 33.3912 21.7165 33.4978 21.6977 33.6003C21.6788 33.7027 21.66 33.8051 21.6411 33.9076C21.5733 34.2764 21.5427 34.615 21.5496 34.9234C21.5685 35.2235 21.6392 35.5013 21.7616 35.7568C21.8841 36.0123 22.0653 36.2363 22.3052 36.4288C22.5452 36.6212 22.8542 36.784 23.2322 36.9171C23.3411 36.9583 23.4146 37.0195 23.4526 37.1006C23.4906 37.1818 23.5012 37.2684 23.4842 37.3606C23.4616 37.4836 23.405 37.5897 23.3144 37.6789C23.236 37.7598 23.1251 37.7871 22.9816 37.7607ZM26.8168 33.6684C26.9669 33.6007 27.1729 33.575 27.4346 33.5914C27.7085 33.5995 27.9889 33.6299 28.2758 33.6826C28.87 33.792 29.2724 34.0514 29.483 34.4608C29.6955 34.86 29.7273 35.4643 29.5784 36.2736C29.5011 36.6937 29.408 37.0843 29.2992 37.4456C29.1922 37.7966 29.0775 38.1038 28.9549 38.3672C28.8444 38.6223 28.7238 38.8172 28.593 38.9521C28.4623 39.0869 28.3355 39.143 28.2126 39.1204C28.1101 39.1015 28.0306 39.0445 27.9739 38.9493C27.9173 38.8542 27.9022 38.7349 27.9286 38.5915C27.9625 38.4071 28.0137 38.2153 28.0821 38.016C28.1506 37.8168 28.226 37.6082 28.3085 37.3904C28.3909 37.1726 28.4682 36.9538 28.5404 36.734C28.6145 36.5041 28.6714 36.2815 28.711 36.0664C28.7882 35.6463 28.7768 35.3053 28.6768 35.0433C28.5888 34.7729 28.34 34.6 27.9302 34.5246C27.7253 34.4869 27.5189 34.486 27.3111 34.5219C27.1032 34.5578 26.9174 34.5607 26.7534 34.5305C26.651 34.5117 26.5766 34.4556 26.5302 34.3623C26.4838 34.2691 26.47 34.1712 26.4889 34.0688C26.504 33.9868 26.5344 33.9077 26.5802 33.8314C26.6363 33.757 26.7151 33.7026 26.8168 33.6684ZM26.8421 30.9404C26.7174 31.3305 26.5897 31.7943 26.459 32.3316C26.3386 32.8708 26.2238 33.4375 26.1144 34.0316C26.0051 34.6258 25.9162 35.2238 25.8479 35.8255C25.7814 36.417 25.7058 36.9433 25.6209 37.4043C25.5851 37.5989 25.5108 37.7441 25.3978 37.8398C25.2849 37.9356 25.1618 37.9712 25.0286 37.9467C24.875 37.9184 24.7826 37.7584 24.7515 37.4667C24.7307 37.1769 24.7417 36.8294 24.7845 36.4242C24.8273 36.019 24.8892 35.5962 24.9703 35.1557C25.0532 34.7049 25.1258 34.3105 25.188 33.9724C25.2973 33.3782 25.415 32.7961 25.5411 32.2262C25.6671 31.6563 25.801 31.1301 25.9427 30.6478C25.9869 30.4653 26.0668 30.3476 26.1824 30.2948C26.3083 30.2438 26.4276 30.2287 26.5403 30.2494C26.653 30.2701 26.7409 30.3393 26.804 30.4568C26.869 30.5641 26.8873 30.6945 26.8591 30.8482L26.8421 30.9404Z" fill="black"/>
</svg>
